<svg width="676" height="184" viewBox="0 0 676 184" fill="none" xmlns="http://www.w3.org/2000/svg">
<path d="M137.097 86.4055C127.801 123.678 90.0381 146.361 52.7492 137.066C15.4755 127.774 -7.21536 90.0212 2.08457 52.7513C11.3758 15.475 49.1388 -7.21047 86.4168 2.08199C123.704 11.3745 146.392 49.1313 137.097 86.4055Z" fill="#F7931A"/>
<path d="M100.265 59.6631C101.65 50.4054 94.5988 45.4287 84.9574 42.1087L88.085 29.568L80.4489 27.6656L77.404 39.8758C75.3965 39.3758 73.3347 38.904 71.2859 38.4365L74.3526 26.1458L66.7208 24.2434L63.5911 36.7798C61.9295 36.4015 60.2983 36.0275 58.715 35.634L58.7236 35.5949L48.1927 32.9663L46.1613 41.1195C46.1613 41.1195 51.827 42.4174 51.7074 42.4979C54.8001 43.2697 55.3591 45.3156 55.2655 46.9376L51.703 61.2241C51.9162 61.2785 52.1924 61.3568 52.4969 61.4785C52.2424 61.4155 51.9706 61.3459 51.69 61.2785L46.6964 81.2918C46.3179 82.2311 45.3588 83.64 43.197 83.1051C43.2731 83.216 37.6466 81.7202 37.6466 81.7202L33.8557 90.4582L43.7929 92.9346C45.6416 93.3977 47.4533 93.8825 49.2367 94.3391L46.0765 107.023L53.704 108.926L56.8336 96.3763C58.9172 96.9416 60.9399 97.4634 62.9191 97.9548L59.8002 110.445L67.4363 112.348L70.5965 99.6876C83.6177 102.151 93.4092 101.157 97.5306 89.3842C100.852 79.9047 97.3653 74.4366 90.5144 70.871C95.5036 69.7208 99.2619 66.44 100.265 59.6631V59.6631ZM82.8173 84.1205C80.4576 93.5999 64.4915 88.4753 59.3152 87.1904L63.5085 70.3861C68.6847 71.6776 85.2837 74.2344 82.8173 84.1205V84.1205ZM85.1793 59.5261C83.0261 68.1489 69.7374 63.7679 65.4267 62.6939L69.2285 47.4528C73.5392 48.5269 87.4216 50.5315 85.1793 59.5261V59.5261Z" fill="#C5C5C5"/>
<path d="M203.945 42.1044C209.589 42.1044 214.465 43.1154 218.562 45.1004C222.68 47.105 226.077 49.8053 228.802 53.2014C231.49 56.6149 233.491 60.6045 234.783 65.1768C236.066 69.7621 236.71 74.691 236.71 79.9678C236.71 88.0731 235.224 95.7306 232.225 102.949C229.226 110.178 225.157 116.448 219.98 121.797C214.809 127.139 208.701 131.35 201.659 134.462C194.627 137.575 186.983 139.132 178.775 139.132C177.713 139.132 175.847 139.101 173.211 139.047C170.575 138.992 167.545 138.721 164.153 138.262C160.738 137.786 157.128 137.081 153.315 136.138C149.505 135.212 145.886 133.914 142.477 132.266L172.952 4.25834L200.247 0.0295563L189.336 45.4548C191.672 44.4025 194.025 43.5871 196.374 42.9936C198.725 42.4087 201.248 42.1044 203.945 42.1044V42.1044ZM181.049 117.485C185.16 117.485 189.034 116.474 192.672 114.489C196.322 112.502 199.471 109.819 202.109 106.478C204.747 103.121 206.835 99.3397 208.358 95.1153C209.88 90.8909 210.65 86.4838 210.65 81.8984C210.65 76.2651 209.708 71.8711 207.831 68.6946C205.954 65.5312 202.481 63.9397 197.437 63.9397C195.785 63.9397 193.655 64.2549 191.015 64.818C188.366 65.4159 185.995 66.6574 183.87 68.525L172.252 116.766C172.952 116.89 173.572 117.007 174.101 117.118C174.618 117.238 175.19 117.322 175.76 117.381C176.363 117.449 177.052 117.483 177.885 117.483C178.718 117.483 179.76 117.485 181.049 117.485V117.485Z" fill="#C5C5C5"/>
<path d="M265.023 136.67H238.952L260.969 44.0568H287.218L265.023 136.67V136.67ZM277.709 32.7728C274.071 32.7728 270.771 31.69 267.844 29.5202C264.892 27.3634 263.431 24.0434 263.431 19.569C263.431 17.1078 263.931 14.7988 264.923 12.6203C265.93 10.4461 267.246 8.5741 268.894 6.9826C270.541 5.40414 272.448 4.14312 274.614 3.193C276.794 2.2581 279.112 1.79065 281.583 1.79065C285.219 1.79065 288.501 2.8734 291.439 5.04323C294.367 7.22394 295.839 10.5439 295.839 14.9945C295.839 17.4643 295.341 19.782 294.341 21.9562C293.347 24.1304 292.031 26.0024 290.382 27.5939C288.749 29.1745 286.824 30.4312 284.662 31.3726C282.481 32.3227 280.171 32.7728 277.709 32.7728V32.7728Z" fill="#C5C5C5"/>
<path d="M310.061 20.9865L337.367 16.7577L330.662 44.0568H359.906L354.625 65.5334H325.557L317.815 97.9287C317.101 100.629 316.697 103.151 316.584 105.495C316.455 107.849 316.753 109.871 317.458 111.574C318.158 113.281 319.418 114.596 321.244 115.527C323.063 116.472 325.666 116.948 329.081 116.948C331.893 116.948 334.633 116.681 337.282 116.151C339.916 115.629 342.585 114.903 345.286 113.952L347.23 134.033C343.707 135.325 339.892 136.436 335.782 137.371C331.664 138.318 326.79 138.775 321.157 138.775C313.058 138.775 306.779 137.573 302.305 135.179C297.838 132.768 294.68 129.474 292.79 125.304C290.926 121.149 290.093 116.359 290.326 110.963C290.567 105.554 291.383 99.8681 292.79 93.8804L310.061 20.9865Z" fill="#C5C5C5"/>
<path d="M358.755 99.6985C358.755 91.7214 360.047 84.1987 362.629 77.1565C365.206 70.1078 368.918 63.944 373.736 58.6542C378.536 53.3905 384.384 49.2205 391.268 46.1592C398.119 43.1153 405.79 41.5804 414.244 41.5804C419.535 41.5804 424.261 42.0804 428.42 43.0827C432.596 44.0937 436.373 45.4004 439.79 47.0398L430.799 67.4771C428.45 66.5248 426.012 65.6856 423.491 64.9246C420.968 64.1484 417.889 63.7744 414.246 63.7744C405.544 63.7744 398.665 66.7726 393.545 72.7495C388.445 78.7307 385.876 86.7817 385.876 96.8807C385.876 102.866 387.168 107.706 389.761 111.409C392.34 115.111 397.105 116.953 404.024 116.953C407.438 116.953 410.733 116.596 413.889 115.9C417.069 115.196 419.877 114.309 422.35 113.261L424.296 134.211C420.999 135.49 417.362 136.644 413.374 137.655C409.376 138.632 404.617 139.138 399.1 139.138C391.816 139.138 385.65 138.073 380.606 135.975C375.561 133.844 371.391 131.015 368.107 127.432C364.806 123.841 362.435 119.647 360.969 114.833C359.503 110.024 358.755 104.971 358.755 99.6985V99.6985Z" fill="#C5C5C5"/>
<path d="M474.565 139.134C468.343 139.134 462.938 138.186 458.353 136.31C453.781 134.433 449.995 131.8 447 128.387C444.001 124.991 441.756 120.966 440.219 116.329C438.681 111.693 437.942 106.56 437.942 100.936C437.942 93.8803 439.075 86.8273 441.365 79.7938C443.644 72.7451 447.026 66.4117 451.502 60.7828C455.943 55.1451 461.422 50.5358 467.873 46.9419C474.317 43.3719 481.729 41.576 490.055 41.576C496.164 41.576 501.54 42.5261 506.188 44.4025C510.814 46.2744 514.625 48.9291 517.637 52.3252C520.617 55.7387 522.881 59.7457 524.403 64.3897C525.936 69.0164 526.693 74.1627 526.693 79.7916C526.693 86.8251 525.575 93.8782 523.357 100.933C521.136 107.954 517.841 114.302 513.492 119.944C509.15 125.573 503.722 130.181 497.201 133.759C490.69 137.338 483.138 139.134 474.565 139.134V139.134ZM487.595 63.7723C483.73 63.7723 480.313 64.8941 477.388 67.1096C474.452 69.3512 471.985 72.169 469.998 75.5672C467.988 78.9807 466.498 82.7029 465.491 86.749C464.493 90.8039 464.004 94.637 464.004 98.2787C464.004 104.156 464.952 108.732 466.816 112.026C468.706 115.303 472.101 116.951 477.036 116.951C480.913 116.951 484.313 115.837 487.256 113.598C490.174 111.374 492.643 108.554 494.646 105.149C496.642 101.753 498.145 98.02 499.152 93.9673C500.138 89.9255 500.64 86.0707 500.64 82.4355C500.64 76.5739 499.696 71.9863 497.815 68.6968C495.936 65.4203 492.525 63.7723 487.595 63.7723V63.7723Z" fill="#C5C5C5"/>
<path d="M555.111 136.67H529.018L551.035 44.0568H577.297L555.111 136.67V136.67ZM567.777 32.7728C564.141 32.7728 560.844 31.69 557.921 29.5202C554.984 27.3634 553.51 24.0434 553.51 19.569C553.51 17.1078 554.017 14.7988 555.011 12.6203C556.005 10.4461 557.329 8.5741 558.978 6.9826C560.615 5.40414 562.54 4.14312 564.702 3.193C566.868 2.2581 569.187 1.79065 571.649 1.79065C575.294 1.79065 578.587 2.8734 581.518 5.04323C584.452 7.22394 585.934 10.5439 585.934 14.9945C585.934 17.4643 585.407 19.782 584.422 21.9562C583.437 24.1304 582.112 26.0024 580.47 27.5939C578.817 29.1745 576.916 30.4312 574.75 31.3726C572.566 32.3227 570.252 32.7728 567.777 32.7728V32.7728Z" fill="#C5C5C5"/>
<path d="M596.075 48.2769C598.054 47.6985 600.264 47.0028 602.667 46.2462C605.079 45.4896 607.774 44.7851 610.784 44.1503C613.762 43.4958 617.122 42.9653 620.817 42.5544C624.512 42.1348 628.723 41.9304 633.401 41.9304C647.151 41.9304 656.629 45.9331 661.862 53.9145C667.09 61.8959 667.995 72.819 664.602 86.6642L652.61 136.67H626.367L637.99 87.7166C638.699 84.6596 639.256 81.7049 639.667 78.8176C640.082 75.9564 640.058 73.4343 639.573 71.2514C639.11 69.0947 638.018 67.3292 636.324 65.9617C634.604 64.6158 632.005 63.9397 628.479 63.9397C625.08 63.9397 621.622 64.3049 618.092 65.0094L601.004 136.668H574.75L596.075 48.2769V48.2769Z" fill="#C5C5C5"/>
</svg>
