<svg width="774" height="201" viewBox="0 0 774 201" fill="none" xmlns="http://www.w3.org/2000/svg">
<g clip-path="url(#clip0_1_11)">
<path d="M187.61 87.86C187.412 90.1302 187.688 92.4168 188.42 94.5746C189.153 96.7325 190.326 98.7145 191.865 100.395C193.405 102.075 195.276 103.417 197.362 104.336C199.447 105.254 201.701 105.729 203.98 105.73H260.53L263.4 72.86H203.98C199.87 72.8594 195.908 74.3995 192.878 77.1764C189.847 79.9533 187.968 83.7652 187.61 87.86ZM212.53 89.29C212.532 90.9799 212.033 92.6324 211.095 94.0383C210.157 95.4442 208.824 96.5404 207.263 97.188C205.702 97.8356 203.984 98.0056 202.326 97.6764C200.669 97.3472 199.146 96.5336 197.951 95.3387C196.756 94.1437 195.943 92.6211 195.614 90.9636C195.284 89.3061 195.454 87.5882 196.102 86.0273C196.75 84.4664 197.846 83.1327 199.252 82.1951C200.658 81.2575 202.31 80.758 204 80.76C206.262 80.76 208.432 81.6587 210.032 83.2584C211.631 84.858 212.53 87.0277 212.53 89.29Z" fill="#C5C5C5"/>
<path d="M252.53 20H85.06C81.5112 20.0012 78.0914 21.3312 75.4743 23.7281C72.8572 26.125 71.2324 29.4149 70.92 32.95L66.92 78.67H48.79C47.4135 78.67 46.0934 79.2168 45.1201 80.1901C44.1468 81.1634 43.6 82.4835 43.6 83.86C43.6 85.2365 44.1468 86.5566 45.1201 87.5299C46.0934 88.5032 47.4135 89.05 48.79 89.05H94.79C97.1849 89.05 99.4817 90.0014 101.175 91.6948C102.869 93.3883 103.82 95.6851 103.82 98.08C103.82 100.475 102.869 102.772 101.175 104.465C99.4817 106.159 97.1849 107.11 94.79 107.11H25.59C24.1074 107.11 22.6856 107.699 21.6373 108.747C20.5889 109.796 20 111.217 20 112.7C20 114.183 20.5889 115.604 21.6373 116.653C22.6856 117.701 24.1074 118.29 25.59 118.29H63.46L61.14 144.76C60.968 146.721 61.2058 148.696 61.8383 150.56C62.4709 152.424 63.4842 154.136 64.8141 155.587C66.1439 157.038 67.7611 158.197 69.5629 158.989C71.3647 159.782 73.3117 160.191 75.28 160.19H242.71C246.259 160.191 249.681 158.862 252.298 156.465C254.916 154.067 256.54 150.776 256.85 147.24L259.91 112.24H204.01C200.788 112.239 197.602 111.56 194.66 110.246C191.718 108.932 189.085 107.013 186.934 104.614C184.783 102.215 183.162 99.3892 182.176 96.3216C181.189 93.2541 180.86 90.0132 181.21 86.81C182.53 75.06 192.76 66.38 204.53 66.38H263.88L266.59 35.45C266.764 33.4943 266.531 31.5237 265.905 29.6628C265.278 27.8019 264.272 26.0913 262.951 24.6392C261.629 23.187 260.021 22.0249 258.227 21.2264C256.433 20.4278 254.493 20.0102 252.53 20V20Z" fill="#C5C5C5"/>
<path d="M26.26 49.23H53.53C54.8684 49.1713 56.1324 48.5983 57.0587 47.6305C57.985 46.6626 58.502 45.3747 58.502 44.035C58.502 42.6953 57.985 41.4074 57.0587 40.4395C56.1324 39.4717 54.8684 38.8987 53.53 38.84H26.26C24.9216 38.8987 23.6576 39.4717 22.7313 40.4395C21.805 41.4074 21.288 42.6953 21.288 44.035C21.288 45.3747 21.805 46.6626 22.7313 47.6305C23.6576 48.5983 24.9216 49.1713 26.26 49.23V49.23Z" fill="#C5C5C5"/>
<path d="M280.09 160.19H306.55L320.1 20.06H293.65L280.09 160.19Z" fill="#FE681E"/>
<path d="M394.18 20.06H343.53L329.98 160.19H388.41C397.06 160.19 445.22 156.38 451.56 87.19C457.9 18 394.18 20.06 394.18 20.06ZM425.61 83.72C423.3 129.28 405.14 135.04 389.61 135.91C380.01 136.44 367.21 136.32 358.8 136.14L367.74 43.7H379.53C379.53 43.7 427.92 38.16 425.61 83.72V83.72Z" fill="#FE681E"/>
<path d="M525.66 20.06H477.66L464.05 160.19H490.53L494.91 114.86H516.46C528.86 114.86 572.39 114.57 577.01 65.55C581.63 16.53 525.66 20.06 525.66 20.06ZM549.22 67.38C546.97 91.38 525.67 91.49 519.61 91.49H497.15L501.64 45.13H524.12C524.12 45.13 551.53 43.38 549.22 67.38Z" fill="#C5C5C5"/>
<path d="M646.19 57.1C617.19 46.71 592.56 59.79 592.56 59.79L590.83 80.55C590.83 80.55 641 62.38 641.83 93.23C641.83 93.23 578.69 81.89 575.23 128.41C571.77 174.93 653.08 168.2 661.54 138.21C670 108.22 675.21 67.48 646.19 57.1ZM616.78 138.79C592.37 138.98 598.9 110.53 619.66 110.53H640.42V121.88C640.42 121.88 641.19 138.6 616.78 138.79V138.79Z" fill="#C5C5C5"/>
<path d="M717.99 124.66L700.4 55.75H674.06L702.53 153.21C702.53 153.21 693.32 188.39 668.22 175.7V197.38C668.22 197.38 688.5 208.53 707.14 190.08C725.78 171.63 773.08 55.71 773.08 55.71H746.24L717.99 124.66Z" fill="#C5C5C5"/>
</g>
<defs>
<clipPath id="clip0_1_11">
<rect width="773.08" height="200.72" fill="white"/>
</clipPath>
</defs>
</svg>
